<svg width="20" height="20" viewBox="0 0 20 20" fill="none" xmlns="http://www.w3.org/2000/svg">
<path d="M7.22656 9.75015C7.8697 11.0783 8.94366 12.1495 10.2734 12.7892C10.3715 12.8357 10.48 12.8558 10.5882 12.8475C10.6965 12.8393 10.8007 12.8031 10.8906 12.7423L12.8437 11.4376C12.93 11.3791 13.0298 11.3434 13.1336 11.3338C13.2374 11.3243 13.342 11.3412 13.4375 11.383L17.0938 12.9533C17.2187 13.0053 17.3231 13.0969 17.3909 13.2141C17.4586 13.3313 17.486 13.4675 17.4688 13.6017C17.3529 14.5062 16.9114 15.3375 16.2269 15.94C15.5424 16.5425 14.6619 16.8749 13.75 16.8751C10.9321 16.8751 8.22956 15.7557 6.23699 13.7632C4.24442 11.7706 3.125 9.06807 3.125 6.25015C3.12521 5.33827 3.45767 4.45771 4.06018 3.77324C4.66269 3.08877 5.49395 2.64728 6.39844 2.5314C6.53269 2.51415 6.66888 2.54152 6.78605 2.60928C6.90322 2.67704 6.99487 2.78144 7.04687 2.9064L8.61719 6.57046C8.65802 6.66448 8.67511 6.7671 8.66693 6.86928C8.65876 6.97146 8.62558 7.07006 8.57031 7.1564L7.26562 9.14077C7.20754 9.23052 7.17345 9.33368 7.16661 9.44037C7.15977 9.54705 7.18041 9.65371 7.22656 9.75015Z" stroke="#FF8C66" stroke-width="1.5" stroke-linecap="round" stroke-linejoin="round"/>
</svg>
