<svg width="83" height="82" viewBox="0 0 83 82" fill="none" xmlns="http://www.w3.org/2000/svg">
<path d="M13.3168 64.3573C6.58758 56.8159 16.4107 43.3284 22.1634 37.5273L31.0101 46.2289C27.9162 55.414 20.0461 71.8987 13.3168 64.3573Z" fill="#9453C8" stroke="#270F3A" stroke-width="1.5"/>
<path d="M71.8785 64.3573C78.6077 56.8159 68.7846 43.3284 63.0319 37.5273L54.1852 46.2289C57.2791 55.414 65.1493 71.8987 71.8785 64.3573Z" fill="#9453C8" stroke="#270F3A" stroke-width="1.5"/>
<path d="M42.8248 64.3573C49.554 56.8159 39.7309 43.3284 33.9782 37.5273L25.1315 46.2289C28.2254 55.414 36.0955 71.8987 42.8248 64.3573Z" fill="white" stroke="#270F3A" stroke-width="1.5"/>
<path d="M66.8035 65.3638C66.8035 78.948 55.7622 81.2871 42.1434 81.2871C28.5247 81.2871 17.4834 78.948 17.4834 65.3638C17.4834 51.7795 28.5247 37.5273 42.1434 37.5273C55.7622 37.5273 66.8035 51.7795 66.8035 65.3638Z" fill="#270F3A" stroke="#270F3A" stroke-width="1.5"/>
<path d="M65.9637 61.9676C65.9637 75.0892 55.2985 77.3486 42.1435 77.3486C28.9885 77.3486 18.3232 75.0892 18.3232 61.9676C18.3232 48.8459 28.9885 35.0791 42.1435 35.0791C55.2985 35.0791 65.9637 48.8459 65.9637 61.9676Z" fill="white" stroke="#270F3A" stroke-width="1.5"/>
<path d="M58.7381 58.9451C58.7381 70.7452 51.309 72.7801 42.1434 72.7801C32.9779 72.7801 25.5488 70.7452 25.5488 58.9451C25.5488 47.145 32.9807 34.7651 42.1434 34.7651C51.3062 34.7651 58.7381 47.145 58.7381 58.9451Z" fill="#FF8C66"/>
<path d="M26.3623 67.5411C20.2263 62.505 16.4615 63.8853 16.4615 63.8853C16.4615 63.8853 14.366 55.4255 7.7299 56.2781C-1.68006 57.4889 -0.48925 77.3916 6.78066 79.3526C14.0506 81.3136 29.6874 78.3579 31.5063 76.5873C33.3252 74.8167 28.9599 69.6755 26.3623 67.5411Z" fill="white" stroke="#270F3A" stroke-width="1.5" stroke-linejoin="round"/>
<path d="M9.31019 76.1265C11.3086 75.7798 12.3641 72.2441 11.6677 68.2292C10.9713 64.2143 8.78678 61.2406 6.78837 61.5872C4.78996 61.9339 3.73445 65.4696 4.43083 69.4845C5.12721 73.4994 7.31177 76.4731 9.31019 76.1265Z" fill="#FF8C66"/>
<path d="M56.6361 67.5416C62.7721 62.5055 65.9295 63.2785 65.9295 63.2785C65.9295 63.2785 68.6323 55.426 75.2685 56.2786C84.6784 57.4893 83.4876 77.392 76.2177 79.353C68.9478 81.314 53.3109 78.3583 51.4778 76.5877C49.6447 74.8172 54.0385 69.6759 56.6361 67.5416Z" fill="white" stroke="#270F3A" stroke-width="1.5" stroke-linejoin="round"/>
<path d="M73.7259 75.1265C71.7275 74.7798 70.672 71.2441 71.3684 67.2292C72.0648 63.2143 74.2494 60.2406 76.2478 60.5872C78.2462 60.9339 79.3017 64.4696 78.6053 68.4845C77.9089 72.4994 75.7244 75.4731 73.7259 75.1265Z" fill="#FF8C66"/>
<path d="M39.0686 11.6309C39.6143 6.49109 35.1548 1.80404 29.1081 1.1621C23.0614 0.520168 17.7173 4.16644 17.1716 9.30628C16.6259 14.4461 21.0854 19.1332 27.1321 19.7751C33.1788 20.4171 38.5229 16.7708 39.0686 11.6309Z" fill="white" stroke="#270F3A" stroke-width="1.5"/>
<path d="M36.1157 14.3218C36.4754 10.9332 33.5354 7.84316 29.549 7.41995C25.5627 6.99674 22.0394 9.40066 21.6797 12.7892C21.3199 16.1778 24.2599 19.2679 28.2463 19.6911C32.2327 20.1143 35.7559 17.7104 36.1157 14.3218Z" fill="#FF8C66"/>
<path d="M76.5247 15.6109C77.0703 10.4711 72.6109 5.78401 66.5642 5.14208C60.5175 4.50014 55.1733 8.14642 54.6277 13.2863C54.082 18.4261 58.5415 23.1132 64.5881 23.7551C70.6348 24.397 75.979 20.7508 76.5247 15.6109Z" fill="white" stroke="#270F3A" stroke-width="1.5"/>
<path d="M71.3852 18.0659C71.7449 14.6774 68.805 11.5873 64.8186 11.1641C60.8322 10.7409 57.309 13.1448 56.9492 16.5334C56.5895 19.922 59.5295 23.012 63.5158 23.4352C67.5022 23.8584 71.0254 21.4545 71.3852 18.0659Z" fill="#FF8C66"/>
<path d="M71.0274 32.3069C72.323 20.1027 61.7363 8.9738 47.3813 7.44982C33.0262 5.92585 20.3389 14.5839 19.0432 26.7881C17.7476 38.9923 28.3343 50.1212 42.6894 51.6451C57.0444 53.1691 69.7318 44.5111 71.0274 32.3069Z" fill="white" stroke="#270F3A" stroke-width="1.5"/>
<path d="M71.0274 32.3069C72.323 20.1027 61.7363 8.9738 47.3813 7.44982C33.0262 5.92585 20.3389 14.5839 19.0432 26.7881C17.7476 38.9923 28.3343 50.1212 42.6894 51.6451C57.0444 53.1691 69.7318 44.5111 71.0274 32.3069Z" fill="white" stroke="#270F3A" stroke-width="1.5"/>
<path d="M39.8055 26.3255C39.7629 26.725 39.6027 27.1029 39.3453 27.4114C39.088 27.7199 38.7449 27.9452 38.3595 28.0588C37.9741 28.1724 37.5637 28.1692 37.1801 28.0496C36.7966 27.93 36.457 27.6994 36.2045 27.3869C35.952 27.0744 35.7977 26.6941 35.7613 26.294C35.7249 25.8938 35.8079 25.4919 35.9998 25.1389C36.1918 24.7859 36.484 24.4978 36.8397 24.3109C37.1954 24.124 37.5984 24.0467 37.998 24.0888C38.5341 24.1461 39.0256 24.4138 39.3645 24.8332C39.7034 25.2526 39.8621 25.7893 39.8055 26.3255Z" fill="#270F3A"/>
<path d="M54.7177 27.8201C54.675 28.2197 54.5148 28.5975 54.2574 28.9061C54.0001 29.2146 53.657 29.4399 53.2716 29.5535C52.8862 29.6671 52.4758 29.6639 52.0922 29.5443C51.7087 29.4247 51.3691 29.194 51.1166 28.8816C50.8641 28.5691 50.7098 28.1887 50.6734 27.7886C50.637 27.3885 50.72 26.9865 50.9119 26.6335C51.1039 26.2806 51.3961 25.9924 51.7518 25.8055C52.1075 25.6186 52.5105 25.5413 52.9101 25.5835C53.1757 25.6115 53.4332 25.6916 53.6679 25.8191C53.9025 25.9467 54.1097 26.1194 54.2776 26.3271C54.4455 26.5348 54.5707 26.7736 54.6462 27.0298C54.7217 27.286 54.746 27.5546 54.7177 27.8201Z" fill="#270F3A"/>
<path d="M58.1344 39.0554C58.7722 33.0477 53.0424 27.5144 45.3366 26.6963C37.6307 25.8782 30.8668 30.0852 30.229 36.0929C29.5913 42.1005 35.321 47.6339 43.0269 48.452C50.7328 49.27 57.4966 45.0631 58.1344 39.0554Z" fill="#FF8C66"/>
<path d="M51.327 33.3877C51.1365 35.1782 48.016 36.315 44.3554 35.9256C40.6949 35.5363 37.8841 33.7714 38.0746 31.9809C38.265 30.1904 40.3681 28.7978 45.0461 29.4458C49.724 30.0938 51.5174 31.6001 51.327 33.3877Z" fill="#270F3A"/>
<path d="M45.2714 41.1439C44.7843 41.1438 44.2976 41.1172 43.8134 41.0643C41.3437 40.8029 39.1837 39.9275 38.0356 38.7197C37.9873 38.6758 37.9485 38.6226 37.9218 38.5631C37.895 38.5037 37.8807 38.4393 37.8799 38.3741C37.8791 38.3089 37.8917 38.2443 37.917 38.1842C37.9423 38.1241 37.9797 38.0698 38.0268 38.0248C38.074 37.9798 38.1299 37.945 38.1911 37.9226C38.2524 37.9001 38.3175 37.8905 38.3826 37.8944C38.4477 37.8983 38.5113 37.9155 38.5694 37.945C38.6276 37.9745 38.679 38.0157 38.7205 38.066C39.7038 39.0976 41.6933 39.8877 43.9129 40.1236C46.1325 40.3595 48.2413 40.0043 49.4207 39.2028C49.4721 39.1679 49.5297 39.1435 49.5905 39.1309C49.6513 39.1183 49.7139 39.1177 49.7749 39.1294C49.8358 39.141 49.8939 39.1645 49.9458 39.1985C49.9977 39.2326 50.0423 39.2765 50.0772 39.3278C50.1121 39.3792 50.1366 39.4369 50.1492 39.4976C50.1618 39.5584 50.1623 39.621 50.1507 39.682C50.1391 39.743 50.1156 39.801 50.0815 39.8529C50.0475 39.9048 50.0035 39.9495 49.9522 39.9844C48.8552 40.7347 47.167 41.1439 45.2714 41.1439Z" fill="#270F3A" stroke="#270F3A" stroke-width="0.5"/>
<path d="M43.8609 41.0698H43.8126C43.6873 41.0562 43.5725 40.9936 43.4931 40.8956C43.4138 40.7976 43.3764 40.6723 43.3892 40.5468L44.148 33.3963C44.1537 33.3335 44.1718 33.2725 44.2013 33.2168C44.2308 33.1611 44.2711 33.1118 44.3199 33.0718C44.3687 33.0319 44.4249 33.002 44.4853 32.9841C44.5458 32.9661 44.6092 32.9603 44.6718 32.9671C44.7345 32.9739 44.7952 32.9931 44.8504 33.0236C44.9056 33.0542 44.9541 33.0954 44.9932 33.1448C45.0322 33.1943 45.0611 33.2511 45.078 33.3118C45.0948 33.3726 45.0995 33.4361 45.0915 33.4986L44.3327 40.6463C44.3195 40.7624 44.2642 40.8696 44.1773 40.9476C44.0903 41.0257 43.9778 41.0691 43.8609 41.0698Z" fill="#270F3A" stroke="#270F3A" stroke-width="0.5"/>
</svg>
