<svg width="73" height="81" viewBox="0 0 73 81" fill="none" xmlns="http://www.w3.org/2000/svg">
<path d="M54.0938 30.8882C56.3104 29.2142 58.399 28.3954 60.1529 28.0626C63.0462 27.5136 66.5394 27.2986 68.9287 29.0201C69.0188 29.085 69.1049 29.153 69.1871 29.2238C72.1123 31.742 69.0309 36.1318 66.0057 38.5288L64.2912 39.8873C61.1867 42.3471 57.013 42.982 53.3175 41.5566L47.2708 39.2243C46.5992 38.9653 46.1562 38.3197 46.1562 37.5999C46.1562 37.0014 46.4616 36.4439 46.9549 36.105C48.1418 35.2894 50.4542 33.6368 54.0938 30.8882Z" fill="white"/>
<path d="M53.517 30.3974C43.2801 28.8645 20.8654 43.6375 20.8654 43.6375C20.8654 43.6375 5.0303 33.4574 1.66617 38.6193C-1.69795 43.7812 8.53292 50.0469 13.2981 54.5062V68.5801H53.517V57.147C57.7001 54.0012 67.2512 43.5748 70.7478 39.6485C71.2559 39.0786 71.5756 38.3672 71.6636 37.6106C71.7515 36.8541 71.6035 36.0889 71.2396 35.4188C68.2287 29.8776 54.6552 41.1903 54.6552 41.1903" fill="white"/>
<path d="M54.327 30.3997C43.9409 28.8357 21.1992 43.9058 21.1992 43.9058C21.1992 43.9058 5.13328 33.5196 1.72214 38.7881C-1.68899 44.0565 8.68902 50.447 13.5216 54.9966V67.5252M53.1906 67.5252V57.3426C57.4347 54.1331 67.4156 43.9486 70.9632 39.9428C71.478 39.3605 71.8017 38.6343 71.8906 37.8622C71.9795 37.0901 71.8292 36.3093 71.4601 35.6254C68.4053 29.9741 55.4837 41.4009 55.4837 41.4009" stroke="#270F3A" stroke-width="1.5" stroke-linecap="round" stroke-linejoin="round"/>
<path d="M45.4395 37.2238C45.4395 37.2238 58.7684 24.7319 65.5234 28.143" stroke="#270F3A" stroke-width="1.5" stroke-linecap="round" stroke-linejoin="round"/>
<path d="M50.9219 38.7885C50.9219 38.7885 61.2883 27.5564 66.8453 28.1987C71.2672 28.1987 71.0405 33.52 70.5415 34.3082" stroke="#270F3A" stroke-width="1.5" stroke-linecap="round" stroke-linejoin="round"/>
<path d="M56.446 42.3899C49.7622 36.4168 40.7344 36.9157 40.7344 36.9157" stroke="#270F3A" stroke-width="1.5" stroke-linecap="round" stroke-linejoin="round"/>
<path d="M56.0291 12.8813C56.0358 10.0174 55.0051 7.2479 53.1277 5.08516C51.2503 2.92243 48.6532 1.51276 45.8168 1.1169C42.9803 0.721041 40.0965 1.36578 37.6987 2.93186C35.3009 4.49794 33.5514 6.8794 32.7737 9.63572C32.056 7.0841 30.503 4.84703 28.3632 3.2826C26.2235 1.71816 23.6208 0.916822 20.9717 1.00683C14.5342 1.22678 9.50493 6.69326 9.50493 13.1388C9.50132 14.358 9.69053 15.5702 10.0655 16.7304C11.4979 21.1025 16.4172 31.6626 32.7603 45.2966C32.7603 45.2966 52.9283 28.9347 55.683 15.5716C55.7233 15.3973 55.7635 15.2283 55.7984 15.0539C55.8332 14.8796 56.0291 13.4553 56.0291 12.8813Z" fill="#FF8C66" stroke="#270F3A" stroke-width="1.5" stroke-linecap="round" stroke-linejoin="round"/>
<rect x="8.40332" y="67.8402" width="48.5091" height="12.4098" rx="3.25" fill="#270F3A" stroke="#270F3A" stroke-width="1.5"/>
<rect x="8.40332" y="64.1016" width="48.5091" height="14.6576" rx="3.25" fill="#9453C8" stroke="#270F3A" stroke-width="1.5"/>
<circle cx="15.3923" cy="72.1758" r="2.04663" fill="#270F3A"/>
</svg>
