<svg width="81" height="82" viewBox="0 0 81 82" fill="none" xmlns="http://www.w3.org/2000/svg">
<rect x="1" y="1" width="78.5047" height="78.5047" rx="9" fill="white" stroke="#270F3A" stroke-width="1.5"/>
<path d="M1 9C1 4.58172 4.58172 1 9 1H71.5047C75.923 1 79.5047 4.58172 79.5047 9V75C79.5047 78.3137 76.8184 81 73.5047 81H7.00001C3.6863 81 1 78.3137 1 75V9Z" fill="white" stroke="#270F3A" stroke-width="1.5"/>
<path d="M1 9.00001C1 4.58173 4.58172 1 9 1H71.5047C75.923 1 79.5047 4.58172 79.5047 9V73.5047C79.5047 76.8184 76.8184 79.5047 73.5047 79.5047H7.00001C3.6863 79.5047 1 76.8184 1 73.5047V9.00001Z" fill="white" stroke="#270F3A" stroke-width="1.5"/>
<circle cx="70.0932" cy="67.7602" r="2.12636" fill="#270F3A"/>
<circle cx="60.9682" cy="67.7602" r="2.12636" fill="#270F3A"/>
<rect x="8.28516" y="8.28516" width="63.9349" height="52.5852" rx="4" fill="#FF8C66" stroke="#270F3A" stroke-width="1.5"/>
<mask id="mask0_25_23891" style="mask-type:alpha" maskUnits="userSpaceOnUse" x="7" y="7" width="66" height="55">
<rect x="8.28516" y="8.28516" width="63.9349" height="52.5852" rx="4" fill="#9453C8" stroke="#270F3A" stroke-width="1.5"/>
</mask>
<g mask="url(#mask0_25_23891)">
<rect x="22.374" y="0.57666" width="35.7578" height="66.4233" rx="4" fill="#270F3A" stroke="#270F3A" stroke-width="1.5"/>
<rect x="29.0371" y="30.1978" width="22.3961" height="8.75974" rx="4.37987" fill="#9453C8" stroke="#270F3A" stroke-width="1.5"/>
<path fill-rule="evenodd" clip-rule="evenodd" d="M45.6731 49.3442C49.2878 49.3442 52.2182 46.4138 52.2182 42.799C52.2182 39.1843 49.2878 36.2539 45.6731 36.2539C43.5535 36.2539 41.6693 37.2614 40.4731 38.8236C39.2769 37.2618 37.3929 36.2545 35.2736 36.2545C31.6589 36.2545 28.7285 39.1849 28.7285 42.7996C28.7285 46.4144 31.6589 49.3448 35.2736 49.3448C35.5228 49.3448 35.7687 49.3308 36.0107 49.3037L36.0107 66.6963C35.7687 66.6692 35.5228 66.6553 35.2736 66.6553C31.6589 66.6553 28.7285 69.5856 28.7285 73.2004C28.7285 76.8152 31.6589 79.7455 35.2736 79.7455C37.3927 79.7455 39.2766 78.7385 40.4727 77.1769C41.6689 78.7387 43.5529 79.7459 45.6722 79.7459C49.2869 79.7459 52.2173 76.8156 52.2173 73.2008C52.2173 69.586 49.2869 66.6557 45.6722 66.6557C45.4232 66.6557 45.1774 66.6696 44.9357 66.6967L44.9357 49.3031C45.1777 49.3302 45.4238 49.3442 45.6731 49.3442Z" fill="white"/>
<path d="M40.4731 38.8236L39.8777 39.2797C40.0196 39.465 40.2397 39.5737 40.4732 39.5736C40.7066 39.5736 40.9267 39.4649 41.0686 39.2796L40.4731 38.8236ZM36.0107 49.3037L36.7607 49.3037C36.7607 49.0903 36.6697 48.8869 36.5106 48.7447C36.3515 48.6024 36.1393 48.5346 35.9271 48.5584L36.0107 49.3037ZM36.0107 66.6963L35.9271 67.4416C36.1393 67.4654 36.3515 67.3977 36.5106 67.2554C36.6697 67.1131 36.7607 66.9098 36.7607 66.6963L36.0107 66.6963ZM40.4727 77.1769L41.0682 76.7209C40.9263 76.5356 40.7062 76.4269 40.4728 76.4269C40.2394 76.4269 40.0193 76.5355 39.8773 76.7208L40.4727 77.1769ZM44.9357 66.6967L44.1857 66.6967C44.1857 66.9101 44.2766 67.1134 44.4357 67.2557C44.5948 67.398 44.807 67.4658 45.0191 67.442L44.9357 66.6967ZM44.9357 49.3031L45.0192 48.5578C44.8071 48.534 44.5949 48.6017 44.4357 48.744C44.2766 48.8863 44.1857 49.0896 44.1857 49.3031L44.9357 49.3031ZM51.4682 42.799C51.4682 45.9996 48.8736 48.5942 45.6731 48.5942L45.6731 50.0942C49.702 50.0942 52.9682 46.828 52.9682 42.799L51.4682 42.799ZM45.6731 37.0039C48.8736 37.0039 51.4682 39.5985 51.4682 42.799L52.9682 42.799C52.9682 38.77 49.702 35.5039 45.6731 35.5039L45.6731 37.0039ZM41.0686 39.2796C42.1289 37.8947 43.7968 37.0039 45.6731 37.0039L45.6731 35.5039C43.3102 35.5039 41.2096 36.6281 39.8776 38.3677L41.0686 39.2796ZM35.2736 37.0045C37.1496 37.0045 38.8173 37.8951 39.8777 39.2797L41.0686 38.3676C39.7366 36.6284 37.6362 35.5045 35.2736 35.5045L35.2736 37.0045ZM29.4785 42.7996C29.4785 39.5991 32.0731 37.0045 35.2736 37.0045L35.2736 35.5045C31.2447 35.5045 27.9785 38.7707 27.9785 42.7996L29.4785 42.7996ZM35.2736 48.5948C32.0731 48.5948 29.4785 46.0002 29.4785 42.7996L27.9785 42.7996C27.9785 46.8286 31.2447 50.0948 35.2736 50.0948L35.2736 48.5948ZM35.9271 48.5584C35.7129 48.5824 35.4948 48.5948 35.2736 48.5948L35.2736 50.0948C35.5508 50.0948 35.8246 50.0793 36.0942 50.0491L35.9271 48.5584ZM36.7607 66.6963L36.7607 49.3037L35.2607 49.3037L35.2607 66.6963L36.7607 66.6963ZM35.2736 67.4053C35.4948 67.4053 35.7129 67.4176 35.9271 67.4416L36.0942 65.951C35.8246 65.9208 35.5508 65.9053 35.2736 65.9053L35.2736 67.4053ZM29.4785 73.2004C29.4785 69.9998 32.0731 67.4053 35.2736 67.4053L35.2736 65.9053C31.2447 65.9053 27.9785 69.1714 27.9785 73.2004L29.4785 73.2004ZM35.2736 78.9955C32.0731 78.9955 29.4785 76.401 29.4785 73.2004L27.9785 73.2004C27.9785 77.2294 31.2447 80.4955 35.2736 80.4955L35.2736 78.9955ZM39.8773 76.7208C38.817 78.1051 37.1494 78.9955 35.2736 78.9955L35.2736 80.4955C37.636 80.4955 39.7361 79.3719 41.0681 77.633L39.8773 76.7208ZM45.6722 78.9959C43.7962 78.9959 42.1285 78.1054 41.0682 76.7209L39.8773 77.6329C41.2093 79.3721 43.3096 80.4959 45.6722 80.4959L45.6722 78.9959ZM51.4673 73.2008C51.4673 76.4014 48.8727 78.9959 45.6722 78.9959L45.6722 80.4959C49.7011 80.4959 52.9673 77.2298 52.9673 73.2008L51.4673 73.2008ZM45.6722 67.4057C48.8727 67.4057 51.4673 70.0003 51.4673 73.2008L52.9673 73.2008C52.9673 69.1718 49.7011 65.9057 45.6722 65.9057L45.6722 67.4057ZM45.0191 67.442C45.2332 67.418 45.4511 67.4057 45.6722 67.4057L45.6722 65.9057C45.3952 65.9057 45.1216 65.9212 44.8522 65.9513L45.0191 67.442ZM44.1857 49.3031L44.1857 66.6967L45.6857 66.6967L45.6857 49.3031L44.1857 49.3031ZM45.6731 48.5942C45.4517 48.5942 45.2336 48.5818 45.0192 48.5578L44.8521 50.0484C45.1218 50.0787 45.3958 50.0942 45.6731 50.0942L45.6731 48.5942Z" fill="#270F3A"/>
<path fill-rule="evenodd" clip-rule="evenodd" d="M45.6534 2.49992C49.2682 2.49992 52.1985 -0.43043 52.1985 -4.0452C52.1985 -7.65998 49.2682 -10.5903 45.6534 -10.5903C43.5339 -10.5903 41.6497 -9.58289 40.4536 -8.02075C39.2574 -9.58262 37.3734 -10.5899 35.2541 -10.5899C31.6393 -10.5899 28.709 -7.6595 28.709 -4.04473C28.709 -0.429953 31.6393 2.5004 35.2541 2.5004C35.5034 2.5004 35.7494 2.48647 35.9914 2.45934L35.9914 19.8523C35.7494 19.8251 35.5034 19.8112 35.2541 19.8112C31.6394 19.8112 28.709 22.7416 28.709 26.3563C28.709 29.9711 31.6394 32.9015 35.2541 32.9015C37.3735 32.9015 39.2576 31.8941 40.4538 30.3321C41.6499 31.8941 43.534 32.9015 45.6534 32.9015C49.2682 32.9015 52.1985 29.9711 52.1985 26.3563C52.1985 22.7416 49.2682 19.8112 45.6534 19.8112C45.4042 19.8112 45.1583 19.8251 44.9164 19.8522L44.9164 2.45889C45.1583 2.486 45.4042 2.49992 45.6534 2.49992Z" fill="white"/>
<path d="M40.4536 -8.02075L39.8581 -7.56473C40.0001 -7.37941 40.2202 -7.27074 40.4536 -7.27075C40.687 -7.27076 40.9071 -7.37945 41.049 -7.56478L40.4536 -8.02075ZM35.9914 2.45934L36.7414 2.45934C36.7414 2.24588 36.6504 2.04253 36.4913 1.90025C36.3322 1.75796 36.12 1.69022 35.9078 1.71401L35.9914 2.45934ZM35.9914 19.8523L35.9078 20.5976C36.12 20.6214 36.3322 20.5536 36.4913 20.4114C36.6504 20.2691 36.7414 20.0657 36.7414 19.8523L35.9914 19.8523ZM40.4538 30.3321L41.0492 29.8761C40.9073 29.6908 40.6872 29.5821 40.4538 29.5821C40.2203 29.5821 40.0002 29.6908 39.8583 29.8761L40.4538 30.3321ZM44.9164 19.8522L44.1664 19.8522C44.1664 20.0657 44.2573 20.269 44.4164 20.4113C44.5756 20.5536 44.7878 20.6213 44.9999 20.5976L44.9164 19.8522ZM44.9164 2.45889L44.9999 1.71355C44.7878 1.68978 44.5756 1.75752 44.4164 1.89981C44.2573 2.04209 44.1664 2.24543 44.1664 2.45889L44.9164 2.45889ZM51.4485 -4.0452C51.4485 -0.844645 48.8539 1.74992 45.6534 1.74992L45.6534 3.24992C49.6824 3.24992 52.9485 -0.0162172 52.9485 -4.0452L51.4485 -4.0452ZM45.6534 -9.84033C48.8539 -9.84033 51.4485 -7.24576 51.4485 -4.0452L52.9485 -4.0452C52.9485 -8.07419 49.6824 -11.3403 45.6534 -11.3403L45.6534 -9.84033ZM41.049 -7.56478C42.1094 -8.94957 43.7772 -9.84033 45.6534 -9.84033L45.6534 -11.3403C43.2906 -11.3403 41.19 -10.2162 39.8581 -8.47672L41.049 -7.56478ZM35.2541 -9.83985C37.1301 -9.83985 38.7978 -8.94927 39.8581 -7.56473L41.049 -8.47677C39.717 -10.216 37.6167 -11.3399 35.2541 -11.3399L35.2541 -9.83985ZM29.459 -4.04473C29.459 -7.24529 32.0536 -9.83985 35.2541 -9.83985L35.2541 -11.3399C31.2251 -11.3399 27.959 -8.07371 27.959 -4.04473L29.459 -4.04473ZM35.2541 1.7504C32.0536 1.7504 29.459 -0.844167 29.459 -4.04473L27.959 -4.04473C27.959 -0.0157395 31.2251 3.2504 35.2541 3.2504L35.2541 1.7504ZM35.9078 1.71401C35.6935 1.73803 35.4754 1.7504 35.2541 1.7504L35.2541 3.2504C35.5313 3.2504 35.8052 3.2349 36.0749 3.20467L35.9078 1.71401ZM36.7414 19.8523L36.7414 2.45934L35.2414 2.45934L35.2414 19.8523L36.7414 19.8523ZM35.2541 20.5612C35.4754 20.5612 35.6935 20.5736 35.9078 20.5976L36.0749 19.1069C35.8052 19.0767 35.5314 19.0612 35.2541 19.0612L35.2541 20.5612ZM29.459 26.3563C29.459 23.1558 32.0536 20.5612 35.2541 20.5612L35.2541 19.0612C31.2251 19.0612 27.959 22.3273 27.959 26.3563L29.459 26.3563ZM35.2541 32.1515C32.0536 32.1515 29.459 29.5569 29.459 26.3563L27.959 26.3563C27.959 30.3853 31.2251 33.6515 35.2541 33.6515L35.2541 32.1515ZM39.8583 29.8761C38.7979 31.2608 37.1302 32.1515 35.2541 32.1515L35.2541 33.6515C37.6168 33.6515 39.7173 32.5275 41.0492 30.7881L39.8583 29.8761ZM45.6534 32.1515C43.7773 32.1515 42.1096 31.2608 41.0492 29.8761L39.8583 30.7881C41.1903 32.5275 43.2907 33.6515 45.6534 33.6515L45.6534 32.1515ZM51.4485 26.3563C51.4485 29.5569 48.8539 32.1515 45.6534 32.1515L45.6534 33.6515C49.6824 33.6515 52.9485 30.3853 52.9485 26.3563L51.4485 26.3563ZM45.6534 20.5612C48.8539 20.5612 51.4485 23.1558 51.4485 26.3563L52.9485 26.3563C52.9485 22.3273 49.6824 19.0612 45.6534 19.0612L45.6534 20.5612ZM44.9999 20.5976C45.2141 20.5736 45.4322 20.5612 45.6534 20.5612L45.6534 19.0612C45.3763 19.0612 45.1025 19.0767 44.8328 19.1069L44.9999 20.5976ZM44.1664 2.45889L44.1664 19.8522L45.6664 19.8522L45.6664 2.45889L44.1664 2.45889ZM45.6534 1.74992C45.4322 1.74992 45.2141 1.73756 44.9999 1.71355L44.8328 3.20422C45.1025 3.23443 45.3763 3.24992 45.6534 3.24992L45.6534 1.74992Z" fill="#270F3A"/>
</g>
<rect x="8.28516" y="8.28516" width="63.9349" height="52.5852" rx="4" stroke="#270F3A" stroke-width="1.5"/>
</svg>
