<svg width="106" height="81" viewBox="0 0 106 81" fill="none" xmlns="http://www.w3.org/2000/svg">
<path d="M104.242 43.1606C105.13 41.866 105.13 40.1341 104.242 38.8395C79.9714 3.45714 42.0746 3.45713 17.8037 38.8395C16.9157 40.1341 16.9157 41.8661 17.8037 43.1606C42.0746 78.543 79.9714 78.543 104.242 43.1606Z" fill="white" stroke="#270F3A" stroke-width="1.5"/>
<circle cx="61.4176" cy="40.0831" r="16.6256" fill="#FF8C66" stroke="#270F3A" stroke-width="1.5"/>
<circle cx="61.418" cy="40.083" r="8.46875" fill="#270F3A" stroke="#270F3A" stroke-width="1.5"/>
<circle cx="66.7271" cy="33.0997" r="3.47323" fill="white" stroke="#270F3A" stroke-width="1.5"/>
<ellipse cx="18.8235" cy="78.225" rx="18.8235" ry="2.77526" fill="#270F3A"/>
<rect x="1.90234" y="34.2417" width="34.5656" height="43.9831" rx="9" fill="#9453C8" stroke="#270F3A" stroke-width="1.5"/>
<path d="M1.90234 45.0444H14.3669C15.4715 45.0444 16.3669 45.9399 16.3669 47.0444V65.4217C16.3669 66.5263 15.4715 67.4217 14.3669 67.4217H1.90234V45.0444Z" fill="white" stroke="#270F3A" stroke-width="1.5"/>
<rect x="1.90234" y="34.2417" width="34.5656" height="43.9831" rx="9" stroke="#270F3A" stroke-width="1.5"/>
<rect x="12.3809" y="1" width="13.6094" height="28.5063" rx="6.80472" fill="#FF8C66" stroke="#270F3A" stroke-width="1.5"/>
<rect x="7.11133" y="17.7979" width="24.1486" height="11.7084" rx="2" fill="white" stroke="#270F3A" stroke-width="1.5"/>
<rect width="20.3632" height="4.73566" rx="2" transform="matrix(1 0 0 -1 9.00391 34.2417)" fill="#270F3A" stroke="#270F3A" stroke-width="1.5"/>
</svg>
